# xmcd
#
# Track frame offsets: 
#        150
#        11738
#        22296
#        32858
#        43010
#        67789
#        80553
#        91146
#        101915
#        113252
#        125375
#        135466
#
# Disc length: 1949 seconds
#
# Revision: 0
# Processed by: cddbd v1.5.2PL0 Copyright (c) Steve Scherf et al.
# Submitted via: ExactAudioCopy v1.0b1
#
DISCID=95079b0c
DTITLE=Arthur ''Big Boy'' Crudup - The Blues
DYEAR=2012
DGENRE=Blues
TTITLE0=Mean Ol' Frisco
TTITLE1=I'm in the Mood
TTITLE2=That's All Right
TTITLE3=Standin' at My Window
TTITLE4=Angel Child (Take 1)
TTITLE5=Katie Mae
TTITLE6=Look on Yonder Wall
TTITLE7=Dig Myself a Hole
TTITLE8=If I Get Lucky
TTITLE9=Death Valley Blues
TTITLE10=I Love Her Just the Same
TTITLE11=Rock Me Mama
EXTD=
EXTT0=
EXTT1=
EXTT2=
EXTT3=
EXTT4=
EXTT5=
EXTT6=
EXTT7=
EXTT8=
EXTT9=
EXTT10=
EXTT11=
PLAYORDER=
